<svg xmlns="http://www.w3.org/2000/svg" version="1.1" xmlns:xlink="http://www.w3.org/1999/xlink" xmlns:svgjs="http://svgjs.dev/svgjs" width="100%" height="100%" viewBox="0 0 1000 600"><rect width="1000" height="600" x="0" y="0" fill="#990000"/><g><circle r="166.66666666666666" cx="394.39162699381507" cy="416.61398999996004" fill="#ffffff" transform="matrix(0.5489074563047375,0,0,0.5489074563047375,0,71.31747625723327)"/><path d="M300.10921410619716 489.1389516299892L280.42387218320766 489.1389516299892L280.42387218320766 344.49198013153114Q288.9138953809882 343.4559095040054 299.18826243728535 342.9378741902425Q309.433849753929 342.4198388764796 320.42771030156354 342.4198388764796L320.42771030156354 342.4198388764796Q338.44382732465044 342.4198388764796 351.078133032534 348.1182273278713Q363.71243874041767 353.81661577926303 370.36055860037465 363.77440569937175Q376.97989872067814 373.7321956194805 376.97989872067814 386.5679595049386L376.97989872067814 386.5679595049386Q376.97989872067814 402.10901891782504 369.3244879728489 412.87264154823157Q361.64029748536615 423.66504391829164 347.96992114995675 429.3634323696833Q334.29954481454735 435.06182082107506 316.2834277914605 435.06182082107506L316.2834277914605 435.06182082107506Q307.56316667645194 435.06182082107506 300.10921410619716 434.4286665486982L300.10921410619716 434.4286665486982L300.10921410619716 489.1389516299892ZM318.75848540166095 418.68614895823725L318.75848540166095 418.68614895823725Q337.2062985195502 418.68614895823725 347.3655466172334 410.3975839380311Q357.4960149752631 402.10901891782504 357.4960149752631 388.2371844048412L357.4960149752631 388.2371844048412Q357.4960149752631 374.76826624700624 347.7684629723823 366.88261758194903Q338.0409109695015 358.9969689168919 319.9960142067611 358.9969689168919L319.9960142067611 358.9969689168919Q314.4127447139834 358.9969689168919 309.433849753929 359.2272068341198Q304.45495479387466 359.42866501169425 300.10921410619716 359.8315813668432L300.10921410619716 359.8315813668432L300.10921410619716 417.6500783307115Q303.4188841663489 418.0529946858604 308.1963209488288 418.36957182204884Q312.9449779916552 418.68614895823725 318.75848540166095 418.68614895823725ZM450.3394550974329 491.61400924018966L450.3394550974329 491.61400924018966Q433.5608668794462 491.61400924018966 420.4948650767602 482.92252786483465Q407.4576430137277 474.23104648947964 399.9749107038194 458.17195176283025Q392.5209581335646 442.1128570361809 392.5209581335646 420.3553738581399L392.5209581335646 420.3553738581399Q392.5209581335646 397.13012395777065 400.4066067986218 379.4305840708722Q408.2634757240255 361.70226444432024 423.0850416455747 351.658135305251Q437.9066075671238 341.6140061661818 458.8294782952135 341.6140061661818L458.8294782952135 341.6140061661818Q472.29839645304844 341.6140061661818 482.8605609058805 344.92367622633355Q493.4515050983661 348.2333462864853 502.77614074609795 353.41369942411416L502.77614074609795 353.41369942411416L495.52364635341763 369.7893712869519Q486.80338523840913 365.011934504472 477.79532672686565 361.9037226218947Q468.7872682153223 358.7955107393174 457.79340766768775 358.7955107393174L457.79340766768775 358.7955107393174Q444.7561856046552 358.7955107393174 434.596937506972 365.7314279958093Q424.43768940928885 372.6961249919547 418.5378427803227 386.16504314978965Q412.6379961513565 399.6339613076246 412.6379961513565 419.0890653133862L412.6379961513565 419.0890653133862Q412.6379961513565 436.5008078037497 418.0198074665598 448.8473161150984Q423.40161878176303 461.1650446867936 432.9277126070694 467.78438480709707Q442.45380643237576 474.43250466705405 454.8866539626849 474.43250466705405L454.8866539626849 474.43250466705405Q466.51366878269624 474.43250466705405 475.5217272942397 469.56872866561366Q484.52978580578315 464.6761729245198 489.710138943412 459.495819786891L489.710138943412 459.495819786891L489.710138943412 427.8093264283947L459.66409074516486 427.8093264283947L459.66409074516486 412.26826701550823L508.3594102388757 412.26826701550823L508.3594102388757 489.1389516299892L490.9476677485122 489.1389516299892L490.9476677485122 474.6339628446285Q483.69517335583186 481.05184478735754 473.3344670805742 486.34731688360034Q462.97376080531654 491.61400924018966 450.3394550974329 491.61400924018966Z " fill="#990000" transform="matrix(0.5489074563047375,0,0,0.5489074563047375,0,71.31747625723327)"/><path d="M659.1287911668056 455.6329674879545L644.3916456345057 455.6329674879545L644.3916456345057 347.3451115737158Q650.7475782836701 346.5694723351737 658.4393340658793 346.18165271590266Q666.1095443136845 345.7938330966316 674.3399384559924 345.7938330966316L674.3399384559924 345.7938330966316Q687.8274429928632 345.7938330966316 697.2859325961962 350.05984890861316Q706.7444221995289 354.3258647205947 711.7214406468407 361.78061962436044Q716.6769135597486 369.23537452812616 716.6769135597486 378.8446828722866L716.6769135597486 378.8446828722866Q716.6769135597486 390.47927145041814 710.9458014082986 398.5373013174944Q705.1931437224447 406.6168767189746 694.9590148805698 410.88289253095616Q684.7248860386949 415.14890834293766 671.237381501824 415.14890834293766L671.237381501824 415.14890834293766Q664.7090845774279 415.14890834293766 659.1287911668056 414.67490658605084L659.1287911668056 414.67490658605084L659.1287911668056 455.6329674879545ZM673.0902974605634 402.8894992670917L673.0902974605634 402.8894992670917Q686.9009850134936 402.8894992670917 694.5065586580869 396.6843853587549Q702.0905867682764 390.47927145041814 702.0905867682764 380.09432386771556L702.0905867682764 380.09432386771556Q702.0905867682764 370.01101376666827 694.8081961397421 364.1075373399867Q687.525805511208 358.20406091330517 674.0167554399331 358.20406091330517L674.0167554399331 358.20406091330517Q669.8369217655674 358.20406091330517 666.1095443136845 358.3764251885368Q662.3821668618017 358.52724392936443 659.1287911668056 358.82888141101967L659.1287911668056 358.82888141101967L659.1287911668056 402.1138600285496Q661.6065276232595 402.4154975102049 665.1830863343148 402.6524983886483Q668.738099510966 402.8894992670917 673.0902974605634 402.8894992670917ZM746.9268438628905 455.6329674879545L732.9653375691327 455.6329674879545L732.9653375691327 374.9664866795761L746.4743876404076 374.9664866795761L746.4743876404076 392.5045516843891Q748.4781223399747 387.37671449624975 751.9038623102023 382.95987994344057Q755.308056746026 378.54304539063133 760.4358939341654 375.828308055734Q765.5421855879009 373.11357072083666 772.3721199939522 373.11357072083666L772.3721199939522 373.11357072083666Q774.6990377095784 373.11357072083666 777.0259554252048 373.32902606487613Q779.3528731408311 373.56602694331957 780.9041516179152 374.0400287002064L780.9041516179152 374.0400287002064L776.7243179435495 388.4539912164471Q773.7725797302087 387.2258957554221 769.7435647966705 387.2258957554221L769.7435647966705 387.2258957554221Q763.9909071108167 387.2258957554221 758.7984333194654 390.47927145041814Q753.6059595281141 393.73264714541415 750.2664016955023 400.5625815514654Q746.9268438628905 407.39251595751665 746.9268438628905 417.92828228104685L746.9268438628905 417.92828228104685L746.9268438628905 455.6329674879545ZM824.1891302354452 457.48588344669395L824.1891302354452 457.48588344669395Q812.7053603981414 457.48588344669395 803.5485082764637 452.14259091451504Q794.3916561547861 446.79929838233613 789.1991823634349 437.2546266413875Q784.0067085720837 427.7099549004389 784.0067085720837 415.2997270837653L784.0067085720837 415.2997270837653Q784.0067085720837 402.2646787693772 789.2853645010507 392.8061891660444Q794.5640204300178 383.3476995627116 803.6993270172914 378.2198623745722Q812.856179138969 373.11357072083666 824.1891302354452 373.11357072083666L824.1891302354452 373.11357072083666Q835.5005357975175 373.11357072083666 844.5927513159832 378.2198623745722Q853.6634213000449 383.3476995627116 859.0067138322239 392.72000702842865Q864.3715518988067 402.1138600285496 864.3715518988067 414.99808960211004L864.3715518988067 414.99808960211004Q864.3715518988067 427.8607736412665 859.0928959698397 437.40544538221513Q853.8142400408726 446.95011712316375 844.7435700568109 452.2287730521308Q835.672900072749 457.48588344669395 824.1891302354452 457.48588344669395ZM824.1891302354452 445.0756556300203L824.1891302354452 445.0756556300203Q836.4485393112911 445.0756556300203 843.2569281829384 436.7806248845007Q850.0868625889897 428.485594138981 850.0868625889897 415.2997270837653L850.0868625889897 415.2997270837653Q850.0868625889897 407.24169721668903 846.682668153166 400.4763994138496Q843.2569281829384 393.73264714541415 837.4396338938727 389.61745007426026Q831.6223396048069 385.52379853751023 824.1891302354452 385.52379853751023L824.1891302354452 385.52379853751023Q811.9297211595992 385.52379853751023 805.099786753548 393.58182840458653Q798.2698523474967 401.6398582716628 798.2698523474967 414.99808960211004L798.2698523474967 414.99808960211004Q798.2698523474967 423.0561194691863 801.6955923177243 429.9506904784494Q805.099786753548 436.86680702211646 810.9170810426136 440.9820040932704Q816.7343753316794 445.0756556300203 824.1891302354452 445.0756556300203ZM870.1026640502566 491.6140099425463L870.1026640502566 491.6140099425463Q860.6441744469238 491.6140099425463 854.2882417977595 488.058996765895L854.2882417977595 488.058996765895L857.6924362335832 476.4244081877635Q859.7177164675542 477.6525036487885 862.5832725432791 478.6005071625622Q865.4488286190041 479.52696514193195 868.4005668323449 479.52696514193195L868.4005668323449 479.52696514193195Q881.5864338875605 479.52696514193195 881.5864338875605 463.0877223917202L881.5864338875605 463.0877223917202L881.5864338875605 374.9664866795761L895.5479401813183 374.9664866795761L895.5479401813183 464.46663659357284Q895.5479401813183 473.9466717313096 892.1222002110907 479.91478476120295Q888.7180057752671 485.88289779109635 882.9868936238171 488.7484538668213Q877.2342359379633 491.6140099425463 870.1026640502566 491.6140099425463ZM888.2440040183802 361.155799126646L888.2440040183802 361.155799126646Q884.2149890848422 361.155799126646 881.3494330091171 358.20406091330517Q878.4838769333921 355.27386823436836 878.4838769333921 351.39567204165786L878.4838769333921 351.39567204165786Q878.4838769333921 346.8926553512329 881.1124321306737 344.2425546195474Q883.7625328623592 341.61399942226586 888.2440040183802 341.61399942226586L888.2440040183802 341.61399942226586Q892.2945644863223 341.61399942226586 895.1601205620473 344.4795554979908Q898.0256766377723 347.3451115737158 898.0256766377723 351.39567204165786L898.0256766377723 351.39567204165786Q898.0256766377723 355.7263244568513 895.3971214404908 358.4410617917486Q892.7470207088052 361.155799126646 888.2440040183802 361.155799126646ZM952.6220608173745 457.48588344669395L952.6220608173745 457.48588344669395Q935.256360087793 457.48588344669395 925.0868678491299 446.4114787630651Q914.9389211448708 435.31552854503224 914.9389211448708 415.2997270837653L914.9389211448708 415.2997270837653Q914.9389211448708 403.19113674874694 919.5065744385075 393.6680105422023Q924.0957732665485 384.1233388012537 932.3046218744523 378.6076819938432Q940.5350160167601 373.11357072083666 951.3939653563494 373.11357072083666L951.3939653563494 373.11357072083666Q963.028553934481 373.11357072083666 970.6987641822863 378.15522577136034Q978.3905199644954 383.19688082188395 982.2687161572059 391.7289124458471Q986.1469123499163 400.26094406981014 986.1469123499163 410.4950729116851L986.1469123499163 410.4950729116851Q986.1469123499163 415.92454758147977 985.6729105930295 421.0308392352153L985.6729105930295 421.0308392352153L929.2020649202838 421.0308392352153Q930.6025246565404 432.3637903316915 937.1092760465325 438.7197229808559Q943.6375729709285 445.0756556300203 954.3457035696903 445.0756556300203L954.3457035696903 445.0756556300203Q961.3264567165692 445.0756556300203 966.9067501271915 443.6105592905519Q972.4870435378137 442.1454629510835 977.6148807259532 439.81854523545724L977.6148807259532 439.81854523545724L980.8682564209493 451.754771295244Q975.287963010327 454.23250775169794 968.3072098634481 455.8699683663979Q961.3264567165692 457.48588344669395 952.6220608173745 457.48588344669395ZM929.0512461794563 409.719433673143L929.0512461794563 409.719433673143L973.262682776356 409.719433673143Q973.262682776356 397.93402635418386 967.3592063496743 391.5565481706155Q961.4772754573968 385.2006155214511 951.0707823402903 385.2006155214511L951.0707823402903 385.2006155214511Q942.0862944938443 385.2006155214511 936.1828180671628 391.49191156740363Q930.3008871748851 397.76166207895227 929.0512461794563 409.719433673143ZM1037.3391020936951 457.48588344669395L1037.3391020936951 457.48588344669395Q1025.8553322563912 457.48588344669395 1017.2371184948122 452.14259091451504Q1008.6404502676372 446.79929838233613 1003.9866148363847 437.2546266413875Q999.3327794051321 427.7099549004389 999.3327794051321 415.2997270837653L999.3327794051321 415.2997270837653Q999.3327794051321 403.6651385056338 1004.0512514395965 394.05583016147335Q1008.7912690084648 384.424976282909 1017.6249381140832 378.75850073467086Q1026.4801527541053 373.11357072083666 1038.4163788138922 373.11357072083666L1038.4163788138922 373.11357072083666Q1045.2463132199437 373.11357072083666 1050.4387870112946 374.3416661818617Q1055.631260802646 375.5913071772906 1060.4359149747265 377.9182248929169L1060.4359149747265 377.9182248929169L1056.2560813003606 389.703632211876Q1051.9038833507634 387.52753323707736 1047.9610505548408 386.5148931200918Q1043.9966722245144 385.52379853751023 1039.1920180524344 385.52379853751023L1039.1920180524344 385.52379853751023Q1028.333068712845 385.52379853751023 1020.9644959466949 393.3448275261431Q1013.5959231805451 401.18740204917987 1013.5959231805451 414.99808960211004L1013.5959231805451 414.99808960211004Q1013.5959231805451 423.3577569508415 1016.6984801347136 430.1876913568928Q1019.8010370888818 437.0176257629441 1025.3166938962922 441.04664069648226Q1030.8108051692989 445.0756556300203 1038.2655600730645 445.0756556300203L1038.2655600730645 445.0756556300203Q1044.1474909653425 445.0756556300203 1048.348870174112 443.7613780313796Q1052.5287038484776 442.4471004327388 1057.333358020558 439.96936397628485L1057.333358020558 439.96936397628485L1061.6855559701553 451.754771295244Q1056.8809017980752 454.38332649252555 1050.9127887681816 455.9346049696097Q1044.9231302038843 457.48588344669395 1037.3391020936951 457.48588344669395ZM1106.1986300487101 457.48588344669395L1106.1986300487101 457.48588344669395Q1094.5640414705786 457.48588344669395 1087.8202892021432 449.81567319888876Q1081.0765369337078 442.1454629510835 1081.0765369337078 427.8607736412665L1081.0765369337078 427.8607736412665L1081.0765369337078 390.00526969353126L1067.11503063995 390.00526969353126L1067.11503063995 377.9182248929169L1081.378174415363 377.9182248929169L1084.3299126287038 352.47294876185526L1095.0380432274656 352.47294876185526L1095.0380432274656 377.9182248929169L1117.3807624043588 377.9182248929169L1117.3807624043588 390.00526969353126L1095.0380432274656 390.00526969353126L1095.0380432274656 428.95959589586784Q1095.0380432274656 437.9440837423138 1098.8300572825601 441.5206424533691Q1102.6436168720588 445.0756556300203 1107.9222728010259 445.0756556300203L1107.9222728010259 445.0756556300203Q1111.8004689937366 445.0756556300203 1115.290845567176 443.84756016899536Q1118.7812221406152 442.5979191735664 1121.7114148195524 440.8958219556546L1121.7114148195524 440.8958219556546L1125.5896110122626 452.0564087768993Q1122.4870540580941 453.93087027004265 1117.2299436635312 455.71914962557025Q1111.9512877345642 457.48588344669395 1106.1986300487101 457.48588344669395ZM1224.720614804824 457.48588344669395L1224.720614804824 457.48588344669395Q1212.1595682473226 457.48588344669395 1202.3778956279307 450.97913205670187Q1192.6177685429425 444.47238066670985 1187.0374751323202 432.4499724693073Q1181.4356361872938 420.4275642719047 1181.4356361872938 404.13914026252064L1181.4356361872938 404.13914026252064Q1181.4356361872938 386.75189399853525 1187.3391126139754 373.5013903401077Q1193.242589040657 360.2293411472762 1204.316993724286 352.70994964029865Q1215.4129439423186 345.1905581333211 1231.076547453988 345.1905581333211L1231.076547453988 345.1905581333211Q1241.1598575550356 345.1905581333211 1249.0886142156883 347.66829458977503Q1256.9958253419368 350.1460310462289 1263.976578488816 354.02422723893943L1263.976578488816 354.02422723893943L1258.5471038190208 366.28363631478544Q1252.018806894625 362.70707760373017 1245.2750546261896 360.3801598881039Q1238.5313023577542 358.05324217247755 1230.3009082154463 358.05324217247755L1230.3009082154463 358.05324217247755Q1220.540781130458 358.05324217247755 1212.9352074858648 363.24571596382884Q1205.3296338412715 368.45973528958405 1200.9127992884623 378.54304539063133Q1196.4959647356532 388.6263554916787 1196.4959647356532 403.19113674874694L1196.4959647356532 403.19113674874694Q1196.4959647356532 416.226185063135 1200.524979669191 425.4692193224284Q1204.5539946027293 434.6907080473178 1211.6855664904356 439.64618096022565Q1218.8386839125465 444.62319940753747 1228.1463547750513 444.62319940753747L1228.1463547750513 444.62319940753747Q1236.829205139842 444.62319940753747 1243.5729574082775 440.9820040932704Q1250.316709676713 437.31926324459937 1254.1949058694236 433.44106705188887L1254.1949058694236 433.44106705188887L1254.1949058694236 409.719433673143L1231.7013679517027 409.719433673143L1231.7013679517027 398.0848450950115L1268.1564121631814 398.0848450950115L1268.1564121631814 455.6329674879545L1255.1213638487934 455.6329674879545L1255.1213638487934 444.7740181483651Q1249.6918891789987 449.5786723204453 1241.9354967935778 453.5430506507716Q1234.179104408157 457.48588344669395 1224.720614804824 457.48588344669395ZM1321.5247008817587 457.48588344669395L1321.5247008817587 457.48588344669395Q1311.4413907807111 457.48588344669395 1303.2109966384037 452.3795917929585Q1295.0021480304995 447.25175460481904 1290.1113117208038 437.87944713910196Q1285.2204754111076 428.485594138981 1285.2204754111076 415.77372884065215L1285.2204754111076 415.77372884065215Q1285.2204754111076 403.6651385056338 1290.1113117208038 394.05583016147335Q1295.0021480304995 384.424976282909 1303.5988162576746 378.75850073467086Q1312.2170300192533 373.11357072083666 1323.377616840498 373.11357072083666L1323.377616840498 373.11357072083666Q1330.358369987377 373.11357072083666 1336.024845535615 375.5051250396748Q1341.6913210838534 377.9182248929169 1345.8711547582188 381.4732380695682L1345.8711547582188 381.4732380695682L1345.8711547582188 374.9664866795761L1358.604565590952 374.9664866795761L1358.604565590952 436.09116778357435Q1358.604565590952 441.97309867585193 1361.4701216666767 443.7613780313796Q1364.335677742402 445.5496573869072 1367.7614177126293 445.5496573869072L1367.7614177126293 445.5496573869072L1364.809679499289 456.4086067264966Q1349.9217152261613 456.4086067264966 1346.8191582719928 444.30001639147827L1346.8191582719928 444.30001639147827Q1343.2425995609374 449.27703483879003 1337.1236677902166 453.392231909944Q1330.9831904850917 457.48588344669395 1321.5247008817587 457.48588344669395ZM1324.6272578359271 445.0756556300203L1324.6272578359271 445.0756556300203Q1330.5307342626088 445.0756556300203 1335.7878446571717 442.21009955429537Q1341.0665005861388 439.3445434785704 1344.6430592971942 434.9923455289731L1344.6430592971942 434.9923455289731L1344.6430592971942 391.7289124458471Q1340.4416800884242 388.7771742325063 1335.4000250379008 386.9888948769787Q1330.358369987377 385.2006155214511 1324.7780765767548 385.2006155214511L1324.7780765767548 385.2006155214511Q1317.3448672073928 385.2006155214511 1311.6783916591548 389.0141751109497Q1306.011916110917 392.8061891660444 1302.7585404159208 399.5499414344799Q1299.5051647209248 406.2936937029154 1299.5051647209248 415.2997270837653L1299.5051647209248 415.2997270837653Q1299.5051647209248 423.982577448556 1302.7585404159208 430.72632971699153Q1306.011916110917 437.49162751983096 1311.7430282623668 441.28364157492564Q1317.4956859482204 445.0756556300203 1324.6272578359271 445.0756556300203ZM1400.3382657313973 455.6329674879545L1386.37675943764 455.6329674879545L1386.37675943764 374.9664866795761L1399.8642639745108 374.9664866795761L1399.8642639745108 388.4539912164471Q1404.216461924108 381.947239826455 1410.8740320549277 377.53040527364584Q1417.5531477201512 373.11357072083666 1426.0851793441147 373.11357072083666L1426.0851793441147 373.11357072083666Q1435.6944876882749 373.11357072083666 1441.8349649933998 377.7674061520893Q1447.953896764121 382.4212415833419 1450.431633220575 390.17763396876285L1450.431633220575 390.17763396876285Q1455.236287392655 383.02451654665236 1461.8292209202627 378.0690436337445Q1468.422154447871 373.11357072083666 1478.2038270672629 373.11357072083666L1478.2038270672629 373.11357072083666Q1491.3896941224784 373.11357072083666 1497.8318089092586 381.40860146635634Q1504.2739236960388 389.703632211876 1504.2739236960388 403.0403180079193L1504.2739236960388 403.0403180079193L1504.2739236960388 455.6329674879545L1490.312417402281 455.6329674879545L1490.312417402281 404.13914026252064Q1490.312417402281 395.7579273793852 1486.4342212095708 390.5654535880339Q1482.55602501686 385.3514342622787 1475.726090610809 385.3514342622787L1475.726090610809 385.3514342622787Q1468.74533746393 385.3514342622787 1462.7772244340367 390.5654535880339Q1456.7875658697394 395.7579273793852 1452.3060947137183 402.7386805262641L1452.3060947137183 402.7386805262641L1452.3060947137183 455.6329674879545L1438.3445884199605 455.6329674879545L1438.3445884199605 404.13914026252064Q1438.3445884199605 395.7579273793852 1434.4663922272498 390.5654535880339Q1430.5881960345396 385.3514342622787 1423.758261628488 385.3514342622787L1423.758261628488 385.3514342622787Q1416.928327222437 385.3514342622787 1410.8740320549277 390.3930893128023Q1404.8197368874185 395.434744363326 1400.3382657313973 402.2646787693772L1400.3382657313973 402.2646787693772L1400.3382657313973 455.6329674879545ZM1560.5724050935528 457.48588344669395L1560.5724050935528 457.48588344669395Q1543.2067043639713 457.48588344669395 1533.0372121253085 446.4114787630651Q1522.8892654210495 435.31552854503224 1522.8892654210495 415.2997270837653L1522.8892654210495 415.2997270837653Q1522.8892654210495 403.19113674874694 1527.4569187146863 393.6680105422023Q1532.024572008323 384.1233388012537 1540.254966150631 378.6076819938432Q1548.4853602929388 373.11357072083666 1559.3443096325277 373.11357072083666L1559.3443096325277 373.11357072083666Q1570.9788982106593 373.11357072083666 1578.6491084584645 378.15522577136034Q1586.3193187062698 383.19688082188395 1590.1975148989804 391.7289124458471Q1594.0757110916907 400.26094406981014 1594.0757110916907 410.4950729116851L1594.0757110916907 410.4950729116851Q1594.0757110916907 415.92454758147977 1593.6232548692078 421.0308392352153L1593.6232548692078 421.0308392352153L1537.1524091964625 421.0308392352153Q1538.5528689327189 432.3637903316915 1545.059620322711 438.7197229808559Q1551.5879172471068 445.0756556300203 1562.2745023114649 445.0756556300203L1562.2745023114649 445.0756556300203Q1569.2552554583435 445.0756556300203 1574.85709440337 443.6105592905519Q1580.4373878139922 442.1454629510835 1585.5436794677275 439.81854523545724L1585.5436794677275 439.81854523545724L1588.8186006971277 451.754771295244Q1583.2167617521013 454.23250775169794 1576.2360086052227 455.8699683663979Q1569.2552554583435 457.48588344669395 1560.5724050935528 457.48588344669395ZM1537.0015904556349 409.719433673143L1537.0015904556349 409.719433673143L1581.2130270525345 409.719433673143Q1581.2130270525345 397.93402635418386 1575.3095506258528 391.5565481706155Q1569.4276197335753 385.2006155214511 1559.0211266164688 385.2006155214511L1559.0211266164688 385.2006155214511Q1550.0366387700228 385.2006155214511 1544.1331623433412 391.49191156740363Q1538.2296859166595 397.76166207895227 1537.0015904556349 409.719433673143Z " fill="#f7c5cc" transform="matrix(0.5489074563047375,0,0,0.5489074563047375,0,71.31747625723327)"/></g></svg>